<svg preserveAspectRatio="none" width="100%" height="100%" overflow="visible" style="display: block;" viewBox="0 0 14.6653 14.6653" fill="none" xmlns="http://www.w3.org/2000/svg">
<path id="Vector" d="M6.67752 1.21055C6.70607 1.05767 6.7872 0.919587 6.90685 0.82022C7.02649 0.720853 7.17712 0.666459 7.33265 0.666459C7.48818 0.666459 7.63881 0.720853 7.75845 0.82022C7.8781 0.919587 7.95922 1.05767 7.98778 1.21055L8.68823 4.91473C8.73797 5.17808 8.86595 5.42032 9.05546 5.60983C9.24497 5.79934 9.48721 5.92732 9.75056 5.97707L13.4547 6.67752C13.6076 6.70607 13.7457 6.7872 13.8451 6.90685C13.9444 7.02649 13.9988 7.17712 13.9988 7.33265C13.9988 7.48818 13.9444 7.63881 13.8451 7.75845C13.7457 7.8781 13.6076 7.95922 13.4547 7.98778L9.75056 8.68823C9.48721 8.73797 9.24497 8.86595 9.05546 9.05546C8.86595 9.24497 8.73797 9.48721 8.68823 9.75056L7.98778 13.4547C7.95922 13.6076 7.8781 13.7457 7.75845 13.8451C7.63881 13.9444 7.48818 13.9988 7.33265 13.9988C7.17712 13.9988 7.02649 13.9444 6.90685 13.8451C6.7872 13.7457 6.70607 13.6076 6.67752 13.4547L5.97707 9.75056C5.92732 9.48721 5.79934 9.24497 5.60983 9.05546C5.42032 8.86595 5.17808 8.73797 4.91473 8.68823L1.21055 7.98778C1.05767 7.95922 0.919587 7.8781 0.82022 7.75845C0.720853 7.63881 0.666459 7.48818 0.666459 7.33265C0.666459 7.17712 0.720853 7.02649 0.82022 6.90685C0.919587 6.7872 1.05767 6.70607 1.21055 6.67752L4.91473 5.97707C5.17808 5.92732 5.42032 5.79934 5.60983 5.60983C5.79934 5.42032 5.92732 5.17808 5.97707 4.91473L6.67752 1.21055Z" stroke="var(--stroke-0, #DAB2FF)" stroke-width="1.33292" stroke-linecap="round" stroke-linejoin="round"/>
</svg>
