<svg preserveAspectRatio="none" width="100%" height="100%" overflow="visible" style="display: block;" viewBox="0 0 43.9965 38.0286" fill="none" xmlns="http://www.w3.org/2000/svg">
<path id="Vector" d="M1.99984 13.0312C1.99988 10.8058 2.67497 8.63277 3.93594 6.79908C5.19692 4.96539 6.98446 3.55733 9.06248 2.76088C11.1405 1.96443 13.4112 1.81705 15.5748 2.3382C17.7383 2.85936 19.6928 4.02454 21.1803 5.67984C21.285 5.79186 21.4117 5.88117 21.5524 5.94222C21.6931 6.00328 21.8448 6.03478 21.9982 6.03478C22.1516 6.03478 22.3033 6.00328 22.444 5.94222C22.5847 5.88117 22.7114 5.79186 22.8161 5.67984C24.2989 4.01378 26.2539 2.83881 28.4209 2.31132C30.588 1.78383 32.8643 1.92884 34.9469 2.72705C37.0295 3.52526 38.8196 4.93881 40.079 6.77956C41.3383 8.62031 42.0072 10.8009 41.9966 13.0312C41.9966 17.6109 38.9968 21.0306 35.9971 24.0303L25.014 34.6555C24.6413 35.0835 24.1819 35.4272 23.6662 35.664C23.1504 35.9008 22.5902 36.0251 22.0228 36.0287C21.4553 36.0323 20.8936 35.9151 20.3749 35.6848C19.8562 35.4546 19.3925 35.1167 19.0144 34.6935L7.99935 24.0303C4.99959 21.0306 1.99984 17.6309 1.99984 13.0312Z" stroke="var(--stroke-0, #FCCEE8)" stroke-width="3.99967" stroke-linecap="round" stroke-linejoin="round"/>
</svg>
