<svg preserveAspectRatio="none" width="100%" height="100%" overflow="visible" style="display: block;" viewBox="0 0 44.006 44.006" fill="none" xmlns="http://www.w3.org/2000/svg">
<path id="Vector" d="M20.0372 3.63249C20.1228 3.17374 20.3663 2.75939 20.7253 2.46122C21.0843 2.16306 21.5363 1.99984 22.003 1.99984C22.4697 1.99984 22.9217 2.16306 23.2807 2.46122C23.6397 2.75939 23.8831 3.17374 23.9688 3.63249L26.0707 14.7476C26.2199 15.5378 26.604 16.2647 27.1726 16.8334C27.7413 17.402 28.4682 17.786 29.2584 17.9353L40.3735 20.0372C40.8323 20.1228 41.2466 20.3663 41.5448 20.7253C41.8429 21.0843 42.0061 21.5363 42.0061 22.003C42.0061 22.4697 41.8429 22.9217 41.5448 23.2807C41.2466 23.6397 40.8323 23.8831 40.3735 23.9688L29.2584 26.0707C28.4682 26.2199 27.7413 26.604 27.1726 27.1726C26.604 27.7413 26.2199 28.4682 26.0707 29.2584L23.9688 40.3735C23.8831 40.8323 23.6397 41.2466 23.2807 41.5448C22.9217 41.8429 22.4697 42.0061 22.003 42.0061C21.5363 42.0061 21.0843 41.8429 20.7253 41.5448C20.3663 41.2466 20.1228 40.8323 20.0372 40.3735L17.9353 29.2584C17.786 28.4682 17.402 27.7413 16.8334 27.1726C16.2647 26.604 15.5378 26.2199 14.7476 26.0707L3.63249 23.9688C3.17374 23.8831 2.75939 23.6397 2.46122 23.2807C2.16306 22.9217 1.99984 22.4697 1.99984 22.003C1.99984 21.5363 2.16306 21.0843 2.46122 20.7253C2.75939 20.3663 3.17374 20.1228 3.63249 20.0372L14.7476 17.9353C15.5378 17.786 16.2647 17.402 16.8334 16.8334C17.402 16.2647 17.786 15.5378 17.9353 14.7476L20.0372 3.63249Z" stroke="var(--stroke-0, #E9D4FF)" stroke-width="3.99967" stroke-linecap="round" stroke-linejoin="round"/>
</svg>
