<svg preserveAspectRatio="none" width="100%" height="100%" overflow="visible" style="display: block;" viewBox="0 0 20.9935 23.3261" fill="none" xmlns="http://www.w3.org/2000/svg">
<path id="Vector" d="M10.4967 15.162V17.4946M3.49891 22.1598H17.4946C18.1132 22.1598 18.7065 21.914 19.144 21.4766C19.5814 21.0391 19.8272 20.4458 19.8272 19.8272V12.8293C19.8272 12.2107 19.5814 11.6174 19.144 11.1799C18.7065 10.7425 18.1132 10.4967 17.4946 10.4967H3.49891C2.88027 10.4967 2.28696 10.7425 1.84951 11.1799C1.41206 11.6174 1.1663 12.2107 1.1663 12.8293V19.8272C1.1663 20.4458 1.41206 21.0391 1.84951 21.4766C2.28696 21.914 2.88027 22.1598 3.49891 22.1598ZM15.162 10.4967V5.83152C15.162 4.59423 14.6704 3.40761 13.7955 2.53271C12.9206 1.65782 11.734 1.1663 10.4967 1.1663C9.25944 1.1663 8.07283 1.65782 7.19793 2.53271C6.32303 3.40761 5.83152 4.59423 5.83152 5.83152V10.4967H15.162Z" stroke="var(--stroke-0, #E9D4FF)" stroke-width="2.33261" stroke-linecap="round" stroke-linejoin="round"/>
</svg>
