<svg preserveAspectRatio="none" width="100%" height="100%" overflow="visible" style="display: block;" viewBox="0 0 15.995 15.995" fill="none" xmlns="http://www.w3.org/2000/svg">
<g id="Icon" clip-path="url(#clip0_22_1551)">
<path id="Vector" d="M13.3292 8.66396C13.3292 11.9963 10.9966 13.6624 8.22411 14.6288C8.07893 14.678 7.92123 14.6756 7.77758 14.6221C4.99844 13.6624 2.66584 11.9963 2.66584 8.66396V3.99875C2.66584 3.82199 2.73605 3.65248 2.86104 3.52749C2.98602 3.40251 3.15554 3.33229 3.3323 3.33229C4.66521 3.33229 6.33136 2.53254 7.491 1.51952C7.63219 1.39889 7.8118 1.33261 7.99751 1.33261C8.18322 1.33261 8.36283 1.39889 8.50402 1.51952C9.67032 2.5392 11.3298 3.33229 12.6627 3.33229C12.8395 3.33229 13.009 3.40251 13.134 3.52749C13.259 3.65248 13.3292 3.82199 13.3292 3.99875V8.66396Z" stroke="var(--stroke-0, #DAB2FF)" stroke-width="1.33292" stroke-linecap="round" stroke-linejoin="round"/>
</g>
<defs>
<clipPath id="clip0_22_1551">
<rect width="15.995" height="15.995" fill="white"/>
</clipPath>
</defs>
</svg>
