<svg preserveAspectRatio="none" width="100%" height="100%" overflow="visible" style="display: block;" viewBox="0 0 23.9925 23.9925" fill="none" xmlns="http://www.w3.org/2000/svg">
<g id="Icon">
<path id="Vector" d="M20.9785 12.4821C20.8848 14.2177 20.2904 15.889 19.2671 17.294C18.2438 18.699 16.8354 19.7775 15.2123 20.3992C13.5891 21.0208 11.8206 21.159 10.1206 20.7971C8.4206 20.4351 6.86181 19.5884 5.6327 18.3594C4.40359 17.1305 3.55677 15.5718 3.19462 13.8718C2.83246 12.1718 2.97047 10.4033 3.59195 8.78008C4.21344 7.15686 5.29181 5.7484 6.69669 4.72497C8.10157 3.70153 9.77282 3.10694 11.5084 3.01306C11.9133 2.99107 12.1252 3.47292 11.9103 3.81581C11.1914 4.96601 10.8836 6.3259 11.0371 7.67356C11.1905 9.02123 11.7962 10.2771 12.7553 11.2362C13.7144 12.1953 14.9703 12.801 16.318 12.9545C17.6656 13.108 19.0255 12.8001 20.1757 12.0812C20.5196 11.8663 21.0005 12.0772 20.9785 12.4821Z" stroke="var(--stroke-0, #DAB2FF)" stroke-width="1.99938" stroke-linecap="round" stroke-linejoin="round"/>
</g>
</svg>
