<svg preserveAspectRatio="none" width="100%" height="100%" overflow="visible" style="display: block;" viewBox="0 0 63.9911 63.9911" fill="none" xmlns="http://www.w3.org/2000/svg">
<g id="Icon">
<path id="Vector" d="M55.9522 33.2914C55.7023 37.9205 54.1169 42.3781 51.3877 46.1253C48.6585 49.8726 44.9022 52.7492 40.5731 54.4072C36.2439 56.0652 31.5271 56.4338 26.993 55.4684C22.4588 54.5029 18.3013 52.2448 15.0231 48.967C11.7449 45.6891 9.48636 41.5319 8.52044 36.9978C7.55452 32.4637 7.9226 27.7469 9.58019 23.4176C11.2378 19.0882 14.1139 15.3317 17.8609 12.6021C21.6079 9.87245 26.0653 8.2866 30.6944 8.03622C31.7742 7.97756 32.3395 9.26272 31.7662 10.1773C29.8489 13.245 29.0279 16.872 29.4372 20.4664C29.8466 24.0607 31.4621 27.4103 34.0201 29.9683C36.5782 32.5264 39.9277 34.1419 43.5221 34.5512C47.1165 34.9606 50.7435 34.1396 53.8112 32.2222C54.7284 31.6489 56.0109 32.2115 55.9522 33.2914Z" stroke="var(--stroke-0, #E9D4FF)" stroke-width="5.33259" stroke-linecap="round" stroke-linejoin="round"/>
</g>
</svg>
