<svg preserveAspectRatio="none" width="100%" height="100%" overflow="visible" style="display: block;" viewBox="0 0 15.995 15.995" fill="none" xmlns="http://www.w3.org/2000/svg">
<g id="Icon" clip-path="url(#clip0_22_1544)">
<path id="Vector" d="M7.68094 1.52953C7.71015 1.47053 7.75527 1.42086 7.8112 1.38613C7.86714 1.3514 7.93167 1.333 7.99751 1.333C8.06335 1.333 8.12788 1.3514 8.18382 1.38613C8.23976 1.42086 8.28487 1.47053 8.31408 1.52953L9.8536 4.6479C9.95502 4.85315 10.1047 5.03072 10.2899 5.16537C10.475 5.30003 10.6901 5.38774 10.9166 5.42099L14.3595 5.92483C14.4248 5.93429 14.4861 5.9618 14.5365 6.00427C14.5869 6.04675 14.6244 6.10248 14.6448 6.16516C14.6652 6.22785 14.6676 6.29499 14.6518 6.35899C14.636 6.42299 14.6027 6.48129 14.5555 6.52731L12.0656 8.95189C11.9014 9.11191 11.7785 9.30943 11.7076 9.52746C11.6366 9.7455 11.6198 9.9775 11.6584 10.2035L12.2462 13.6291C12.2577 13.6943 12.2507 13.7614 12.2259 13.8228C12.2011 13.8842 12.1595 13.9374 12.1059 13.9763C12.0524 14.0152 11.9889 14.0383 11.9229 14.0429C11.8568 14.0475 11.7908 14.0334 11.7323 14.0023L8.65464 12.3842C8.45185 12.2777 8.22623 12.222 7.99718 12.222C7.76813 12.222 7.54251 12.2777 7.33972 12.3842L4.26267 14.0023C4.20425 14.0333 4.13831 14.0472 4.07237 14.0425C4.00642 14.0378 3.94312 14.0147 3.88965 13.9758C3.83619 13.9369 3.79471 13.8838 3.76993 13.8225C3.74515 13.7612 3.73807 13.6942 3.7495 13.6291L4.33665 10.2042C4.37544 9.97806 4.35863 9.74591 4.28769 9.52774C4.21675 9.30958 4.0938 9.11194 3.92944 8.95189L1.43955 6.52798C1.39196 6.48202 1.35824 6.42361 1.34222 6.35941C1.32621 6.29522 1.32854 6.22782 1.34897 6.16489C1.36939 6.10195 1.40707 6.04602 1.45773 6.00346C1.50839 5.96091 1.56998 5.93343 1.63549 5.92417L5.07775 5.42099C5.30452 5.388 5.51987 5.3004 5.70528 5.16573C5.89069 5.03106 6.04059 4.85335 6.14209 4.6479L7.68094 1.52953Z" fill="var(--fill-0, #FDC700)" stroke="var(--stroke-0, #FDC700)" stroke-width="1.33292" stroke-linecap="round" stroke-linejoin="round"/>
</g>
<defs>
<clipPath id="clip0_22_1544">
<rect width="15.995" height="15.995" fill="white"/>
</clipPath>
</defs>
</svg>
