<svg preserveAspectRatio="none" width="100%" height="100%" overflow="visible" style="display: block;" viewBox="0 0 23.9925 23.9925" fill="none" xmlns="http://www.w3.org/2000/svg">
<g id="Icon">
<path id="Vector" d="M19.9938 12.996C19.9938 17.9944 16.4949 20.4936 12.3362 21.9432C12.1184 22.017 11.8818 22.0134 11.6664 21.9332C7.49767 20.4936 3.99876 17.9944 3.99876 12.996V5.99814C3.99876 5.733 4.10408 5.47873 4.29156 5.29125C4.47904 5.10377 4.73331 4.99845 4.99844 4.99845C6.99782 4.99845 9.49704 3.79882 11.2365 2.27929C11.4483 2.09835 11.7177 1.99893 11.9963 1.99893C12.2748 1.99893 12.5442 2.09835 12.756 2.27929C14.5055 3.80882 16.9947 4.99845 18.9941 4.99845C19.2592 4.99845 19.5135 5.10377 19.701 5.29125C19.8885 5.47873 19.9938 5.733 19.9938 5.99814V12.996Z" stroke="var(--stroke-0, #DAB2FF)" stroke-width="1.99938" stroke-linecap="round" stroke-linejoin="round"/>
</g>
</svg>
