<svg preserveAspectRatio="none" width="100%" height="100%" overflow="visible" style="display: block;" viewBox="0 0 19.9938 19.9938" fill="none" xmlns="http://www.w3.org/2000/svg">
<g id="Icon" clip-path="url(#clip0_19_1505)">
<path id="Vector" d="M9.17799 2.34423C9.21368 2.15313 9.31509 1.98052 9.46465 1.85632C9.6142 1.73211 9.80249 1.66411 9.9969 1.66411C10.1913 1.66411 10.3796 1.73211 10.5292 1.85632C10.6787 1.98052 10.7801 2.15313 10.8158 2.34423L11.6914 6.97446C11.7536 7.30364 11.9135 7.60644 12.1504 7.84333C12.3873 8.08022 12.6901 8.24019 13.0193 8.30238L17.6495 9.17794C17.8406 9.21363 18.0132 9.31504 18.1374 9.4646C18.2616 9.61415 18.3296 9.80244 18.3296 9.99685C18.3296 10.1913 18.2616 10.3795 18.1374 10.5291C18.0132 10.6787 17.8406 10.7801 17.6495 10.8158L13.0193 11.6913C12.6901 11.7535 12.3873 11.9135 12.1504 12.1504C11.9135 12.3873 11.7536 12.6901 11.6914 13.0192L10.8158 17.6495C10.7801 17.8406 10.6787 18.0132 10.5292 18.1374C10.3796 18.2616 10.1913 18.3296 9.9969 18.3296C9.80249 18.3296 9.6142 18.2616 9.46465 18.1374C9.31509 18.0132 9.21368 17.8406 9.17799 17.6495L8.30243 13.0192C8.24024 12.6901 8.08027 12.3873 7.84338 12.1504C7.60649 11.9135 7.3037 11.7535 6.97451 11.6913L2.34428 10.8158C2.15318 10.7801 1.98057 10.6787 1.85637 10.5291C1.73216 10.3795 1.66417 10.1913 1.66417 9.99685C1.66417 9.80244 1.73216 9.61415 1.85637 9.4646C1.98057 9.31504 2.15318 9.21363 2.34428 9.17794L6.97451 8.30238C7.3037 8.24019 7.60649 8.08022 7.84338 7.84333C8.08027 7.60644 8.24024 7.30364 8.30243 6.97446L9.17799 2.34423Z" stroke="var(--stroke-0, white)" stroke-width="1.66615" stroke-linecap="round" stroke-linejoin="round"/>
<path id="Vector_2" d="M16.6615 1.66615V4.99844" stroke="var(--stroke-0, white)" stroke-width="1.66615" stroke-linecap="round" stroke-linejoin="round"/>
<path id="Vector_3" d="M18.3276 3.3323H14.9953" stroke="var(--stroke-0, white)" stroke-width="1.66615" stroke-linecap="round" stroke-linejoin="round"/>
<path id="Vector_4" d="M3.3323 18.3276C4.25248 18.3276 4.99844 17.5817 4.99844 16.6615C4.99844 15.7413 4.25248 14.9953 3.3323 14.9953C2.41211 14.9953 1.66615 15.7413 1.66615 16.6615C1.66615 17.5817 2.41211 18.3276 3.3323 18.3276Z" stroke="var(--stroke-0, white)" stroke-width="1.66615" stroke-linecap="round" stroke-linejoin="round"/>
</g>
<defs>
<clipPath id="clip0_19_1505">
<rect width="19.9938" height="19.9938" fill="white"/>
</clipPath>
</defs>
</svg>
